<?xml version="1.0" encoding="UTF-8"?>
<svg width="100pt" height="100pt" version="1.1" viewBox="0 0 100 100" xmlns="http://www.w3.org/2000/svg">
 <path d="m50.035 30.477c0.26562 0.003907 0.51172 0.09375 0.74609 0.25391l23.93 18.895c0.55078 0.44141 0.62891 1.2578 0.21484 1.7891-0.40625 0.52344-1.2695 0.60938-1.7891 0.19531l-23.145-18.262-23.145 18.262c-0.51953 0.41406-1.3594 0.32422-1.7695-0.19531-0.40625-0.51953-0.36328-1.3789 0.19531-1.7891l10.234-8.0898v-11.059h5.0391v7.0859l8.6602-6.8281c0.28125-0.18359 0.5625-0.26172 0.82812-0.25391zm-0.039062 5.0391 17.004 13.227v20.781h-10.707v-12.594h-12.594v12.594h-10.707v-20.781z"/>
</svg>
